<svg width="100%" height="100%" viewBox="0 0 600 77.738998" fill="none" xmlns="http://www.w3.org/2000/svg"><path d="m 162.4874,22.095437 c -1.187,-2.175825 -2.8188,-3.832506 -4.89567,-4.969762 -2.07714,-1.137534 -4.50037,-1.706163 -7.2697,-1.706163 -3.06595,0 -5.78581,0.692196 -8.15956,2.076863 -2.37376,1.384667 -4.22809,3.362841 -5.56328,5.934247 -1.33518,2.571682 -2.00278,5.538667 -2.00278,8.901509 0,3.461529 0.6676,6.478273 2.00278,9.049679 1.38468,2.571683 3.28849,4.549581 5.71173,5.934248 2.42322,1.384667 5.24177,2.077138 8.45616,2.077138 3.95635,0 7.19536,-1.038569 9.71755,-3.115432 2.52192,-2.12662 4.17861,-5.069002 4.96976,-8.827424 h -17.80273 v -7.937025 h 28.03943 v 9.049678 c -0.6922,3.610254 -2.17583,6.948215 -4.45062,10.014165 -2.27478,3.065949 -5.21717,5.538668 -8.82715,7.417879 -3.56076,1.829728 -7.56632,2.744454 -12.01693,2.744454 -4.99465,0 -9.51962,-1.112654 -13.57467,-3.337963 -4.00582,-2.27479 -7.17074,-5.414824 -9.49501,-9.420656 -2.2748,-4.005554 -3.41205,-8.555135 -3.41205,-13.648741 0,-5.093605 1.13725,-9.643186 3.41205,-13.648741 2.32427,-4.055314 5.48919,-7.195348 9.49501,-9.420656 4.05505,-2.274789 8.55514,-3.412323 13.50031,-3.412323 5.83555,0 10.90429,1.434148 15.20673,4.302447 4.30217,2.818815 7.26943,6.799491 8.90123,11.942579 z m 18.21657,15.503349 c 0,-4.154001 0.81604,-7.838061 2.44785,-11.052457 1.68128,-3.214671 3.93147,-5.687113 6.75027,-7.417878 2.8683,-1.731041 6.05783,-2.596285 9.56911,-2.596285 3.06596,0 5.73632,0.618112 8.01111,1.854332 2.32428,1.236497 4.17888,2.794213 5.56355,4.673423 v -5.860162 h 10.45895 v 41.09467 h -10.45895 v -6.008332 c -1.33518,1.928693 -3.1898,3.53589 -5.56355,4.821592 -2.32427,1.236222 -5.01924,1.854332 -8.08547,1.854332 -3.46153,0 -6.62645,-0.890124 -9.49475,-2.67037 -2.8188,-1.780246 -5.06899,-4.277567 -6.75027,-7.491963 -1.63181,-3.263877 -2.44785,-6.997419 -2.44785,-11.200902 z m 32.34189,0.148446 c 0,-2.522201 -0.49455,-4.673424 -1.48363,-6.45367 -0.98909,-1.829729 -2.32427,-3.214396 -4.00555,-4.154001 -1.68156,-0.989087 -3.48641,-1.483632 -5.41511,-1.483632 -1.9287,0 -3.70893,0.469942 -5.34101,1.409548 -1.63181,0.939605 -2.96699,2.324271 -4.00556,4.154 -0.98909,1.780246 -1.48363,3.906591 -1.48363,6.379309 0,2.472719 0.49454,4.648544 1.48363,6.527755 1.03857,1.829728 2.37375,3.238998 4.00556,4.228086 1.68156,0.989088 3.4618,1.48363 5.34101,1.48363 1.9287,0 3.73355,-0.46994 5.41511,-1.409545 1.68128,-0.988811 3.01646,-2.373479 4.00555,-4.154002 0.98908,-1.829728 1.48363,-4.005554 1.48363,-6.527478 z m 30.9868,-14.613226 c 1.33518,-1.879211 3.16491,-3.436926 5.48918,-4.673148 2.37376,-1.285977 5.06872,-1.928692 8.08547,-1.928692 3.51102,0 6.67592,0.865244 9.49474,2.596285 2.8683,1.730765 5.11849,4.203207 6.75028,7.417878 1.68128,3.164914 2.52083,6.848974 2.52083,11.052457 0,4.203483 -0.83955,7.937025 -2.52083,11.200902 -1.63179,3.214396 -3.88198,5.711717 -6.75028,7.491963 -2.81882,1.780246 -5.98372,2.67037 -9.49474,2.67037 -3.01675,0 -5.68711,-0.61811 -8.01138,-1.854332 -2.2748,-1.23622 -4.12913,-2.793936 -5.56327,-4.673147 V 77.877694 H 233.64752 V 17.199759 h 10.38514 z m 21.7342,14.46478 c 0,-2.472718 -0.51914,-4.599063 -1.55771,-6.379309 -0.98908,-1.829729 -2.32426,-3.214395 -4.00555,-4.154 -1.63208,-0.939606 -3.41233,-1.409548 -5.34103,-1.409548 -1.8792,0 -3.65944,0.494545 -5.34073,1.483632 -1.63208,0.939605 -2.96727,2.324272 -4.00556,4.154001 -0.98908,1.829728 -1.48362,3.980952 -1.48362,6.45367 0,2.472442 0.49454,4.623665 1.48362,6.453394 1.03829,1.829728 2.37348,3.239275 4.00556,4.228086 1.68129,0.939605 3.46153,1.409545 5.34073,1.409545 1.9287,0 3.70895,-0.494542 5.34103,-1.48363 1.68129,-0.989088 3.01647,-2.398358 4.00555,-4.228086 1.03857,-1.829729 1.55771,-4.005831 1.55771,-6.527755 z m 23.42186,-25.294981 c -1.83,0 -3.36422,-0.56863 -4.5999,-1.705886 -1.18591,-1.187015 -1.78024,-2.645766 -1.78024,-4.376532 0,-1.731041 0.59433,-3.165024 1.78024,-4.302419 1.23568,-1.186849 2.7699,-1.780274 4.5999,-1.780274 1.82725,0 3.33658,0.593425 4.52249,1.780274 1.23843,1.137395 1.85489,2.571378 1.85489,4.302419 0,1.730766 -0.61646,3.189517 -1.85489,4.376532 -1.18591,1.137256 -2.69524,1.705886 -4.52249,1.705886 z m 5.11683,4.895954 v 41.09467 h -10.3857 v -41.09467 z m 22.3526,8.530532 v 19.879881 c 0,1.384666 0.32067,2.398357 0.96476,3.04107 0.69109,0.593508 1.82723,0.890124 3.41121,0.890124 h 4.82104 v 8.753063 h -6.52665 c -8.75472,0 -13.13069,-4.252688 -13.13069,-12.758618 v -19.80552 h -4.89569 v -8.530532 h 4.89569 V 7.03715 h 10.46033 v 10.162609 h 9.19701 v 8.530532 z m 56.57535,32.564138 h -5.19423 l -28.7051,-43.616871 v 43.616871 h -5.19422 V 6.443918 h 5.19422 l 28.7051,43.542786 V 6.443918 h 5.19423 z m 29.4874,0.593508 c -3.80652,0 -7.24262,-0.840642 -10.30828,-2.521925 -3.01869,-1.73104 -5.41539,-4.154 -7.19563,-7.269708 -1.73048,-3.164913 -2.59573,-6.848974 -2.59573,-11.052456 0,-4.203483 0.89012,-7.86294 2.67037,-10.978371 1.78024,-3.164914 4.20182,-5.58815 7.2675,-7.269433 3.06566,-1.73104 6.50453,-2.596285 10.31105,-2.596285 3.80928,0 7.24539,0.865245 10.31105,2.596285 3.11543,1.681283 5.53978,4.104519 7.27027,7.269433 1.78024,3.115431 2.67036,6.774888 2.67036,10.978371 0,4.154001 -0.89012,7.813458 -2.67036,10.978371 -1.78024,3.164914 -4.22947,5.612753 -7.3449,7.343793 -3.11543,1.681283 -6.57641,2.521925 -10.3857,2.521925 z m 0,-4.524979 c 2.67314,0 5.14447,-0.59323 7.41954,-1.780246 2.27506,-1.23622 4.10507,-3.065949 5.49001,-5.489186 1.43195,-2.472441 2.15067,-5.489185 2.15067,-9.049678 0,-3.560494 -0.69385,-6.552358 -2.07879,-8.975594 -1.38218,-2.472719 -3.21219,-4.302448 -5.48725,-5.489185 -2.27507,-1.236222 -4.74917,-1.854608 -7.41954,-1.854608 -2.67036,0 -5.1417,0.618386 -7.41677,1.854608 -2.27506,1.186737 -4.10507,3.016466 -5.49001,5.489185 -1.33519,2.423236 -2.0014,5.4151 -2.0014,8.975594 0,3.560493 0.66621,6.577237 2.0014,9.049678 1.38494,2.423237 3.19007,4.252966 5.41537,5.489186 2.27506,1.187016 4.74641,1.780246 7.41677,1.780246 z m 35.05759,-29.374621 c 1.13892,-2.521923 2.8694,-4.475219 5.19423,-5.859886 2.37182,-1.384667 5.2661,-2.077138 8.67732,-2.077138 v 5.415101 h -1.40982 c -3.75676,0 -6.77545,1.01369 -9.04775,3.041347 -2.27506,2.027379 -3.41398,5.414824 -3.41398,10.162333 v 22.624335 h -5.19147 V 17.793267 h 5.19147 z m 19.30905,12.981425 c 0,-4.153999 0.84037,-7.788854 2.52385,-10.904285 1.68073,-3.164914 3.98068,-5.58815 6.89708,-7.269433 2.96614,-1.73104 6.3055,-2.596285 10.01527,-2.596285 3.56049,0 6.77267,0.865245 9.64207,2.596285 2.8694,1.730765 4.97032,3.980951 6.30551,6.750285 V 3.402571 h 5.19146 v 54.891858 h -5.19146 V 49.24475 c -1.23567,2.818816 -3.26471,5.143088 -6.08159,6.972816 -2.81964,1.780247 -6.13411,2.670371 -9.94063,2.670371 -3.70977,0 -7.04635,-0.865245 -10.01527,-2.596286 -2.9164,-1.730765 -5.21635,-4.178603 -6.89708,-7.343517 -1.63373,-3.164913 -2.44921,-6.82437 -2.44921,-10.978372 z m 35.38378,0.07409 c 0,-3.263876 -0.66898,-6.132175 -2.00417,-8.604617 -1.33518,-2.472718 -3.16242,-4.376531 -5.48724,-5.711716 -2.27507,-1.335185 -4.79894,-2.003054 -7.56605,-2.003054 -2.8694,0 -5.44026,0.642989 -7.71532,1.928693 -2.27507,1.285979 -4.08019,3.164913 -5.41538,5.637632 -1.28543,2.423235 -1.92952,5.316137 -1.92952,8.678977 0,3.313085 0.64409,6.230864 1.92952,8.753065 1.33519,2.472441 3.14031,4.376531 5.41538,5.711715 2.27506,1.285704 4.84592,1.928416 7.71532,1.928416 2.76711,0 5.29098,-0.667592 7.56605,-2.002777 2.32482,-1.335184 4.15206,-3.238998 5.48724,-5.711716 1.33519,-2.472442 2.00417,-5.34074 2.00417,-8.604618 z m 19.64353,-27.89099 c -1.03941,0 -1.92953,-0.370976 -2.67037,-1.112654 -0.74362,-0.741954 -1.11405,-1.656679 -1.11405,-2.744731 0,-1.08805 0.37043,-1.978175 1.11405,-2.67037 0.74084,-0.741815 1.63096,-1.11271 2.67037,-1.11271 1.03664,0 1.92675,0.370895 2.67036,1.11271 0.74085,0.692195 1.11127,1.58232 1.11127,2.67037 0,1.088052 -0.37042,2.002777 -1.11127,2.744731 -0.74361,0.741678 -1.63372,1.112654 -2.67036,1.112654 z m 2.59573,7.640409 v 40.50116 h -5.19423 V 17.793267 Z m 9.38499,20.250581 c 0,-4.203482 0.84036,-7.862939 2.5211,-10.978371 1.68073,-3.164914 4.00555,-5.58815 6.9717,-7.269432 2.96893,-1.731041 6.35527,-2.596285 10.16455,-2.596285 4.9952,0 9.0975,1.236221 12.31246,3.708939 3.2647,2.472442 5.36561,5.835283 6.30549,10.088248 h -5.56465 c -0.69109,-2.91778 -2.20043,-5.19257 -4.52249,-6.824371 -2.27506,-1.681558 -5.11959,-2.5222 -8.53081,-2.5222 -2.72012,0 -5.16935,0.618111 -7.3449,1.854608 -2.17555,1.23622 -3.90604,3.090552 -5.19146,5.563271 -1.23566,2.423236 -1.85489,5.4151 -1.85489,8.975593 0,3.560494 0.61923,6.577237 1.85489,9.049679 1.28542,2.472719 3.01591,4.32705 5.19146,5.563548 2.17555,1.23622 4.62478,1.854331 7.3449,1.854331 3.41122,0 6.25575,-0.816039 8.53081,-2.447839 2.32206,-1.681282 3.8314,-4.005555 4.52249,-6.972817 h 5.56465 c -0.93988,4.154001 -3.04079,7.491963 -6.30549,10.014164 -3.26472,2.521924 -7.36702,3.783024 -12.31246,3.783024 -3.80928,0 -7.19562,-0.840643 -10.16455,-2.521925 -2.96615,-1.731041 -5.29097,-4.154 -6.9717,-7.269708 -1.68074,-3.164913 -2.5211,-6.848974 -2.5211,-11.052457 z m 61.81105,20.84409 c -4.64965,0 -8.45617,-1.063172 -11.42509,-3.189517 -2.9164,-2.176103 -4.54738,-5.118486 -4.89568,-8.827424 h 5.34073 c 0.2488,2.27479 1.31308,4.129398 3.19008,5.563546 1.92952,1.384667 4.50037,2.076863 7.71532,2.076863 2.81964,0 5.02007,-0.667593 6.60129,-2.002778 1.63373,-1.335184 2.44922,-2.991864 2.44922,-4.970038 0,-1.384668 -0.44506,-2.521924 -1.33519,-3.412048 -0.89012,-0.890124 -2.02904,-1.582595 -3.41398,-2.077139 -1.33519,-0.544026 -3.16242,-1.112654 -5.48725,-1.706161 -3.01868,-0.79116 -5.46514,-1.582319 -7.34489,-2.373479 -1.87977,-0.791435 -3.48586,-1.953571 -4.82105,-3.486408 -1.28543,-1.582594 -1.92952,-3.684336 -1.92952,-6.305223 0,-1.978176 0.59434,-3.807904 1.78024,-5.489187 1.18868,-1.681282 2.86941,-3.016743 5.04496,-4.005554 2.17554,-0.989087 4.64965,-1.483631 7.41677,-1.483631 4.35387,0 7.8646,1.112653 10.53497,3.337962 2.67037,2.175826 4.10507,5.19257 4.30134,9.049679 h -5.19146 c -0.14927,-2.373477 -1.08916,-4.277568 -2.81965,-5.711717 -1.68073,-1.483354 -4.00555,-2.225308 -6.97171,-2.225308 -2.62061,0 -4.74917,0.618111 -6.38013,1.854608 -1.63097,1.23622 -2.44922,2.769334 -2.44922,4.599063 0,1.582317 0.46994,2.8929 1.40982,3.93147 0.98963,0.988809 2.20042,1.780246 3.63512,2.373477 1.4347,0.544026 3.36423,1.162137 5.78581,1.854608 2.91916,0.791159 5.24398,1.557715 6.97447,2.299392 1.73049,0.741955 3.21219,1.82973 4.45061,3.263879 1.23568,1.434148 1.877,3.337961 1.92676,5.711717 0,2.176102 -0.59157,4.129397 -1.78025,5.860162 -1.1859,1.681283 -2.84175,3.016743 -4.97031,4.005554 -2.12579,0.989088 -4.57225,1.483632 -7.34213,1.483632 z" fill="#000000" id="path2"></path><path d="m 94.311984,49.104597 -2.72e-4,-0.884871 H 72.126629 l -0.02792,-1.326892 V 31.853621 l 0.01355,-1.326892 H 54.425063 l -0.01963,-0.884871 V 7.967633 L 54.384423,7.083037 H 40.68648 l 0.0072,0.884596 v 6.635011 c -2.653783,0.442574 -5.307567,1.327169 -7.962179,2.211764 l -3.096082,-5.308121 -0.38784,-0.569182 -9.785384,5.435004 -0.6559,0.365725 0.213657,0.518871 3.096109,5.30812 c -2.211652,1.769189 -4.423304,3.980952 -6.634957,6.634736 l -5.7728358,-3.282123 -0.4193809,0.628339 -5.3077888,9.289072 -0.2160899,0.401661 0.6583042,0.482933 5.3077891,3.096358 c -0.8844568,2.65406 -1.7694107,5.750418 -2.2116803,7.961905 L 0.01996417,47.817786 2.77e-6,48.662575 0,59.720837 h 30.521082 c -0.884594,-1.769466 -0.884594,-3.980953 -0.884594,-6.192716 0,-9.73137 7.96218,-17.2507 17.251252,-17.2507 9.288797,0 17.250977,7.519607 17.250977,17.2507 0,2.211763 -0.442298,4.42325 -0.884594,6.192716 h 30.946984 z" fill="#278acc" id="path4"></path><rect x="82.212379" y="26.179779" width="12.163589" height="12.163589" fill="#278acc" id="rect6"></rect><rect x="64.530174" y="7.0589867" width="12.163589" height="12.163589" fill="#278acc" id="rect8"></rect></svg>