<svg width="23" height="13" viewBox="0 0 23 13" fill="none" xmlns="http://www.w3.org/2000/svg">
<path d="M22.6088 9.87694V9.66913H17.2905L17.2838 9.35739V5.82433L17.2871 5.51259H13.047L13.0423 5.30478V0.213021L13.0372 0.00518799L9.75351 0.00519562L9.7553 0.213021V1.77172C9.11909 1.87565 8.48288 2.08346 7.84655 2.2913L7.10433 1.04433L7.01138 0.910601L4.66557 2.18737L4.50832 2.27332L4.55956 2.39522L5.30174 3.64216C4.77158 4.05781 4.24137 4.57739 3.71119 5.20086L2.3273 4.42977L2.22676 4.57739L0.954364 6.7596L0.902564 6.854L1.06038 6.96745L2.33278 7.69484C2.12075 8.31831 1.9086 9.0457 1.80259 9.56528L0.00478501 9.57465L0 9.77309V12.371H7.31662C7.1046 11.9553 7.1046 11.4357 7.1046 10.9161C7.1046 8.63004 9.01335 6.86356 11.2401 6.86356C13.4669 6.86356 15.3756 8.63008 15.3756 10.9162C15.3756 11.4357 15.2696 11.9553 15.1636 12.371H22.5823L22.6088 9.87694Z" fill="#1570EF"/>
<path d="M19.7109 4.49139H22.6269V7.34888H19.7109V4.49139Z" fill="#1570EF"/>
<path d="M15.4692 0H18.3851V2.8575H15.4692V0Z" fill="#1570EF"/>
</svg>
