<svg width="767" height="172" viewBox="0 0 767 172" fill="none" xmlns="http://www.w3.org/2000/svg">
<path d="M119.934 60.5924L119.934 59.4674L91.7215 59.4674L91.686 57.7799L91.686 38.655L91.7032 36.9675L69.2108 36.9675L69.1859 35.8425L69.1859 8.28005L69.1591 7.15503L51.7398 7.15506L51.7492 8.28005L51.7492 16.7176C48.3743 17.2801 44.9995 18.4051 41.6239 19.5301L37.6867 12.7801L37.1935 12.0562L24.7496 18.9675L23.9155 19.4328L24.1873 20.0926L28.1245 26.8426C25.312 29.0925 22.4995 31.905 19.687 35.2801L12.3458 31.1061L11.8125 31.9051L5.06278 43.7178L4.78799 44.2287L5.62514 44.8428L12.3749 48.7803C11.2502 52.1554 10.1248 56.0928 9.56237 58.9053L0.0255181 58.9562L0.000135018 60.0303L0.000134403 74.0928L38.8128 74.0928C37.6881 71.8429 37.6881 69.0304 37.6881 66.2179C37.6881 53.8429 47.8134 44.2805 59.6258 44.2805C71.4381 44.2805 81.5634 53.8429 81.5634 66.2179C81.5634 69.0304 81.001 71.8429 80.4387 74.0928L119.793 74.0928L119.934 60.5924Z" fill="#1570EF"/>
<rect x="104.55" y="31.4399" width="15.4681" height="15.4681" fill="#1570EF"/>
<rect x="82.0608" y="7.125" width="15.4681" height="15.4681" fill="#1570EF"/>
<path d="M206.63 27.9218C205.12 25.1548 203.045 23.0481 200.404 21.6017C197.763 20.1553 194.681 19.4321 191.16 19.4321C187.261 19.4321 183.802 20.3125 180.783 22.0733C177.765 23.8342 175.406 26.3496 173.708 29.6198C172.01 32.8899 171.161 36.6631 171.161 40.9394C171.161 45.3415 172.01 49.1776 173.708 52.4477C175.469 55.7179 177.89 58.2333 180.972 59.9942C184.053 61.755 187.638 62.6354 191.726 62.6354C196.756 62.6354 200.876 61.3148 204.083 58.6736C207.29 55.9694 209.397 52.2276 210.403 47.4482H187.764V37.3549H223.421V48.8632C222.54 53.4539 220.654 57.6988 217.761 61.5978C214.868 65.4968 211.126 68.6411 206.535 71.0308C202.008 73.3577 196.914 74.5211 191.254 74.5211C184.902 74.5211 179.148 73.1061 173.991 70.2762C168.898 67.3834 164.873 63.3901 161.917 58.2962C159.024 53.2024 157.578 47.4168 157.578 40.9394C157.578 34.4621 159.024 28.6765 161.917 23.5826C164.873 18.4259 168.898 14.4326 173.991 11.6027C179.148 8.70985 184.871 7.26345 191.16 7.26345C198.58 7.26345 205.026 9.08717 210.497 12.7346C215.968 16.3192 219.742 21.3816 221.817 27.9218H206.63Z" fill="white"/>
<path d="M229.795 47.6369C229.795 42.3544 230.833 37.6693 232.908 33.5816C235.046 29.494 237.908 26.3496 241.492 24.1486C245.14 21.9476 249.196 20.847 253.661 20.847C257.56 20.847 260.956 21.6331 263.849 23.2053C266.804 24.7775 269.162 26.7584 270.923 29.1481V21.696H284.224V73.9551H270.923V66.3143C269.225 68.7669 266.867 70.8107 263.849 72.4458C260.893 74.018 257.465 74.8041 253.566 74.8041C249.164 74.8041 245.14 73.6721 241.492 71.4082C237.908 69.1442 235.046 65.9684 232.908 61.8808C230.833 57.7303 229.795 52.9823 229.795 47.6369ZM270.923 47.8256C270.923 44.6183 270.294 41.8827 269.037 39.6188C267.779 37.292 266.081 35.5311 263.943 34.3363C261.805 33.0786 259.509 32.4497 257.057 32.4497C254.604 32.4497 252.34 33.0471 250.265 34.242C248.19 35.4368 246.492 37.1977 245.171 39.5245C243.913 41.7884 243.284 44.4925 243.284 47.6369C243.284 50.7812 243.913 53.5483 245.171 55.938C246.492 58.2648 248.19 60.0571 250.265 61.3148C252.403 62.5725 254.667 63.2014 257.057 63.2014C259.509 63.2014 261.805 62.604 263.943 61.4091C266.081 60.1514 267.779 58.3906 269.037 56.1266C270.294 53.7998 270.923 51.0328 270.923 47.8256Z" fill="white"/>
<path d="M310.328 29.2424C312.026 26.8527 314.353 24.8718 317.309 23.2996C320.327 21.6646 323.755 20.847 327.591 20.847C332.056 20.847 336.081 21.9476 339.665 24.1486C343.313 26.3496 346.174 29.494 348.249 33.5816C350.387 37.6064 351.456 42.2915 351.456 47.6369C351.456 52.9823 350.387 57.7303 348.249 61.8808C346.174 65.9684 343.313 69.1442 339.665 71.4082C336.081 73.6721 332.056 74.8041 327.591 74.8041C323.755 74.8041 320.359 74.018 317.403 72.4458C314.51 70.8736 312.152 68.8927 310.328 66.503V98.8583H297.122V21.696H310.328V29.2424ZM337.967 47.6369C337.967 44.4925 337.307 41.7884 335.986 39.5245C334.729 37.1977 333.031 35.4368 330.892 34.242C328.817 33.0471 326.553 32.4497 324.101 32.4497C321.711 32.4497 319.447 33.0786 317.309 34.3363C315.234 35.5311 313.536 37.292 312.215 39.6188C310.957 41.9456 310.328 44.6812 310.328 47.8256C310.328 50.9699 310.957 53.7055 312.215 56.0323C313.536 58.3591 315.234 60.1514 317.309 61.4091C319.447 62.604 321.711 63.2014 324.101 63.2014C326.553 63.2014 328.817 62.5725 330.892 61.3148C333.031 60.0571 334.729 58.2648 335.986 55.938C337.307 53.6112 337.967 50.8441 337.967 47.6369Z" fill="white"/>
<path d="M367.751 15.4702C365.424 15.4702 363.474 14.747 361.902 13.3006C360.393 11.7913 359.638 9.93614 359.638 7.7351C359.638 5.53405 360.393 3.71033 361.902 2.26393C363.474 0.754643 365.424 0 367.751 0C370.077 0 371.995 0.754643 373.505 2.26393C375.077 3.71033 375.863 5.53405 375.863 7.7351C375.863 9.93614 375.077 11.7913 373.505 13.3006C371.995 14.747 370.077 15.4702 367.751 15.4702ZM374.259 21.696V73.9551H361.053V21.696H374.259Z" fill="white"/>
<path d="M402.683 32.544V57.8246C402.683 59.5854 403.092 60.8746 403.909 61.6921C404.79 62.4468 406.236 62.8241 408.249 62.8241H414.38V73.9551H406.079C394.948 73.9551 389.382 68.5468 389.382 57.7303V32.544H383.157V21.696H389.382V8.77273H402.683V21.696H414.38V32.544H402.683Z" fill="white"/>
<path d="M474.628 73.9551H468.025L431.519 18.4888V73.9551H424.916V8.01809H431.519L468.025 63.3901V8.01809H474.628V73.9551Z" fill="white"/>
<path d="M512.129 74.7097C507.287 74.7097 502.916 73.6407 499.017 71.5025C495.181 69.3015 492.131 66.22 489.867 62.2581C487.666 58.2333 486.566 53.5483 486.566 48.2029C486.566 42.8575 487.698 38.2038 489.962 34.242C492.225 30.2172 495.307 27.1357 499.206 24.9976C503.105 22.7965 507.476 21.696 512.318 21.696C517.16 21.696 521.531 22.7965 525.43 24.9976C529.392 27.1357 532.473 30.2172 534.674 34.242C536.938 38.2038 538.07 42.8575 538.07 48.2029C538.07 53.4854 536.938 58.139 534.674 62.1638C532.41 66.1886 529.297 69.3015 525.335 71.5025C521.374 73.6407 516.972 74.7097 512.129 74.7097ZM512.129 68.9556C515.525 68.9556 518.669 68.2009 521.562 66.6916C524.455 65.1195 526.782 62.7927 528.543 59.7112C530.366 56.5668 531.278 52.7307 531.278 48.2029C531.278 43.675 530.398 39.8703 528.637 36.7889C526.876 33.6445 524.549 31.3177 521.657 29.8084C518.764 28.2363 515.619 27.4502 512.224 27.4502C508.828 27.4502 505.683 28.2363 502.791 29.8084C499.898 31.3177 497.571 33.6445 495.81 36.7889C494.112 39.8703 493.263 43.675 493.263 48.2029C493.263 52.7307 494.112 56.5668 495.81 59.7112C497.571 62.7927 499.866 65.1195 502.696 66.6916C505.589 68.2009 508.733 68.9556 512.129 68.9556Z" fill="white"/>
<path d="M556.71 31.6007C558.156 28.3935 560.357 25.9094 563.313 24.1486C566.332 22.3878 570.011 21.5073 574.35 21.5073V28.3935H572.557C567.778 28.3935 563.942 29.6827 561.049 32.261C558.156 34.8394 556.71 39.1471 556.71 45.1843V73.9551H550.107V22.4507H556.71V31.6007Z" fill="white"/>
<path d="M581.265 48.1085C581.265 42.826 582.334 38.2038 584.472 34.242C586.61 30.2172 589.534 27.1357 593.245 24.9976C597.018 22.7965 601.263 21.696 605.979 21.696C610.507 21.696 614.595 22.7965 618.242 24.9976C621.89 27.1986 624.562 30.06 626.26 33.5816V4.15054H632.863V73.9551H626.26V62.4468C624.688 66.0313 622.11 68.987 618.525 71.3138C614.941 73.5778 610.727 74.7097 605.885 74.7097C601.168 74.7097 596.923 73.6092 593.15 71.4082C589.44 69.2071 586.516 66.0942 584.378 62.0695C582.302 58.0447 581.265 53.391 581.265 48.1085ZM626.26 48.2029C626.26 44.0523 625.411 40.4049 623.713 37.2605C622.015 34.1162 619.689 31.695 616.733 29.9971C613.84 28.2991 610.633 27.4502 607.111 27.4502C603.464 27.4502 600.194 28.2677 597.301 29.9028C594.408 31.5378 592.113 33.9275 590.415 37.0719C588.78 40.1533 587.962 43.8322 587.962 48.1085C587.962 52.322 588.78 56.0323 590.415 59.2395C592.113 62.3839 594.408 64.805 597.301 66.503C600.194 68.138 603.464 68.9556 607.111 68.9556C610.633 68.9556 613.84 68.1066 616.733 66.4087C619.689 64.7107 622.015 62.2896 623.713 59.1452C625.411 56.0009 626.26 52.3534 626.26 48.2029Z" fill="white"/>
<path d="M651.239 12.7346C649.919 12.7346 648.787 12.263 647.843 11.3197C646.9 10.3764 646.429 9.21294 646.429 7.82943C646.429 6.44591 646.9 5.31395 647.843 4.43353C648.787 3.49023 649.919 3.01858 651.239 3.01858C652.56 3.01858 653.692 3.49023 654.635 4.43353C655.579 5.31395 656.05 6.44591 656.05 7.82943C656.05 9.21294 655.579 10.3764 654.635 11.3197C653.692 12.263 652.56 12.7346 651.239 12.7346ZM654.541 22.4507V73.9551H647.938V22.4507H654.541Z" fill="white"/>
<path d="M666.475 48.2029C666.475 42.8575 667.544 38.2038 669.682 34.242C671.821 30.2172 674.776 27.1357 678.55 24.9976C682.323 22.7965 686.631 21.696 691.473 21.696C697.824 21.696 703.044 23.2682 707.132 26.4125C711.282 29.5569 713.955 33.8332 715.15 39.2415H708.075C707.195 35.5311 705.277 32.6383 702.321 30.5631C699.428 28.4249 695.812 27.3558 691.473 27.3558C688.014 27.3558 684.901 28.1419 682.134 29.7141C679.367 31.2863 677.166 33.6445 675.531 36.7889C673.959 39.8703 673.173 43.675 673.173 48.2029C673.173 52.7307 673.959 56.5668 675.531 59.7112C677.166 62.8555 679.367 65.2138 682.134 66.786C684.901 68.3581 688.014 69.1442 691.473 69.1442C695.812 69.1442 699.428 68.1066 702.321 66.0313C705.277 63.8932 707.195 60.9375 708.075 57.1643H715.15C713.955 62.4468 711.282 66.6916 707.132 69.8989C702.981 73.1061 697.762 74.7097 691.473 74.7097C686.631 74.7097 682.323 73.6407 678.55 71.5025C674.776 69.3015 671.821 66.22 669.682 62.2581C667.544 58.2333 666.475 53.5483 666.475 48.2029Z" fill="white"/>
<path d="M745.079 74.7097C739.168 74.7097 734.325 73.3577 730.552 70.6535C726.842 67.8865 724.767 64.1447 724.326 59.4282H731.118C731.433 62.321 732.785 64.6793 735.174 66.503C737.627 68.2638 740.897 69.1442 744.985 69.1442C748.569 69.1442 751.368 68.2953 753.38 66.5973C755.455 64.8994 756.493 62.7927 756.493 60.2772C756.493 58.5163 755.927 57.0699 754.795 55.938C753.663 54.806 752.217 53.9256 750.456 53.2967C748.758 52.605 746.431 51.8818 743.475 51.1271C739.639 50.1209 736.526 49.1147 734.137 48.1085C731.747 47.1023 729.703 45.6245 728.005 43.675C726.37 41.6626 725.553 38.9899 725.553 35.6569C725.553 33.1414 726.307 30.8146 727.817 28.6765C729.326 26.5383 731.464 24.8404 734.231 23.5826C736.998 22.3249 740.142 21.696 743.664 21.696C749.198 21.696 753.663 23.111 757.059 25.9409C760.455 28.7079 762.279 32.544 762.53 37.4492H755.927C755.738 34.4306 754.544 32.0095 752.342 30.1858C750.204 28.2991 747.249 27.3558 743.475 27.3558C740.142 27.3558 737.438 28.1419 735.363 29.7141C733.288 31.2863 732.25 33.2358 732.25 35.5626C732.25 37.575 732.848 39.2415 734.042 40.5621C735.3 41.8198 736.841 42.826 738.665 43.5807C740.488 44.2724 742.941 45.0585 746.022 45.9389C749.733 46.9451 752.688 47.9199 754.889 48.8632C757.09 49.8065 758.977 51.19 760.549 53.0137C762.121 54.8374 762.939 57.2586 763.002 60.2772C763.002 63.0442 762.247 65.5282 760.738 67.7293C759.229 69.8674 757.122 71.5654 754.418 72.8231C751.714 74.0809 748.601 74.7097 745.079 74.7097Z" fill="white"/>
<path d="M218.643 139.907C219.428 138.542 220.59 137.409 222.129 136.508C223.698 135.579 225.513 135.114 227.576 135.114C229.696 135.114 231.613 135.622 233.327 136.639C235.07 137.656 236.435 139.094 237.423 140.953C238.411 142.783 238.904 144.918 238.904 147.358C238.904 149.769 238.411 151.918 237.423 153.806C236.435 155.695 235.07 157.161 233.327 158.207C231.613 159.253 229.696 159.776 227.576 159.776C225.542 159.776 223.741 159.326 222.173 158.425C220.633 157.495 219.457 156.348 218.643 154.983V170.712H214.678V135.506H218.643V139.907ZM234.852 147.358C234.852 145.557 234.489 143.988 233.763 142.652C233.037 141.316 232.049 140.299 230.8 139.602C229.58 138.905 228.229 138.556 226.748 138.556C225.295 138.556 223.945 138.919 222.696 139.646C221.476 140.343 220.488 141.374 219.733 142.739C219.007 144.075 218.643 145.629 218.643 147.401C218.643 149.202 219.007 150.785 219.733 152.151C220.488 153.487 221.476 154.518 222.696 155.244C223.945 155.941 225.295 156.29 226.748 156.29C228.229 156.29 229.58 155.941 230.8 155.244C232.049 154.518 233.037 153.487 233.763 152.151C234.489 150.785 234.852 149.188 234.852 147.358Z" fill="white"/>
<path d="M242.642 147.358C242.642 144.918 243.136 142.783 244.123 140.953C245.111 139.094 246.462 137.656 248.176 136.639C249.918 135.622 251.85 135.114 253.971 135.114C256.062 135.114 257.878 135.564 259.417 136.465C260.957 137.365 262.104 138.498 262.859 139.863V135.506H266.868V159.384H262.859V154.939C262.075 156.334 260.899 157.495 259.33 158.425C257.79 159.326 255.99 159.776 253.927 159.776C251.807 159.776 249.889 159.253 248.176 158.207C246.462 157.161 245.111 155.695 244.123 153.806C243.136 151.918 242.642 149.769 242.642 147.358ZM262.859 147.401C262.859 145.6 262.496 144.032 261.77 142.696C261.044 141.359 260.056 140.343 258.807 139.646C257.587 138.919 256.236 138.556 254.755 138.556C253.274 138.556 251.923 138.905 250.703 139.602C249.483 140.299 248.51 141.316 247.783 142.652C247.057 143.988 246.694 145.557 246.694 147.358C246.694 149.188 247.057 150.785 247.783 152.151C248.51 153.487 249.483 154.518 250.703 155.244C251.923 155.941 253.274 156.29 254.755 156.29C256.236 156.29 257.587 155.941 258.807 155.244C260.056 154.518 261.044 153.487 261.77 152.151C262.496 150.785 262.859 149.202 262.859 147.401Z" fill="white"/>
<path d="M277.534 139.384C278.231 138.019 279.218 136.959 280.496 136.203C281.804 135.448 283.387 135.071 285.246 135.071V139.166H284.2C279.756 139.166 277.534 141.577 277.534 146.399V159.384H273.568V135.506H277.534V139.384Z" fill="white"/>
<path d="M294.659 138.774V152.848C294.659 154.01 294.906 154.838 295.4 155.331C295.894 155.796 296.751 156.029 297.971 156.029H300.89V159.384H297.317C295.11 159.384 293.454 158.875 292.35 157.859C291.246 156.842 290.694 155.172 290.694 152.848V138.774H287.601V135.506H290.694V129.493H294.659V135.506H300.89V138.774H294.659Z" fill="white"/>
<path d="M327.724 159.776C325.487 159.776 323.454 159.267 321.624 158.251C319.823 157.234 318.4 155.796 317.354 153.937C316.337 152.049 315.829 149.87 315.829 147.401C315.829 144.961 316.352 142.812 317.398 140.953C318.472 139.065 319.925 137.627 321.755 136.639C323.585 135.622 325.633 135.114 327.898 135.114C330.164 135.114 332.212 135.622 334.042 136.639C335.872 137.627 337.31 139.05 338.356 140.909C339.43 142.768 339.968 144.932 339.968 147.401C339.968 149.87 339.416 152.049 338.312 153.937C337.237 155.796 335.77 157.234 333.911 158.251C332.052 159.267 329.99 159.776 327.724 159.776ZM327.724 156.29C329.148 156.29 330.484 155.956 331.733 155.288C332.982 154.62 333.984 153.618 334.739 152.281C335.524 150.945 335.916 149.319 335.916 147.401C335.916 145.484 335.538 143.857 334.783 142.521C334.028 141.185 333.04 140.197 331.82 139.558C330.6 138.89 329.278 138.556 327.855 138.556C326.402 138.556 325.066 138.89 323.846 139.558C322.655 140.197 321.697 141.185 320.971 142.521C320.244 143.857 319.881 145.484 319.881 147.401C319.881 149.348 320.23 150.989 320.927 152.325C321.653 153.661 322.612 154.663 323.803 155.331C324.994 155.97 326.301 156.29 327.724 156.29Z" fill="white"/>
<path d="M354.898 138.774H349.887V159.384H345.922V138.774H342.828V135.506H345.922V133.807C345.922 131.135 346.604 129.188 347.97 127.968C349.364 126.719 351.586 126.095 354.636 126.095V129.406C352.893 129.406 351.659 129.755 350.933 130.452C350.235 131.12 349.887 132.238 349.887 133.807V135.506H354.898V138.774Z" fill="white"/>
<path d="M369.656 144.177C369.656 141.214 370.324 138.556 371.66 136.203C372.996 133.821 374.812 131.962 377.106 130.626C379.43 129.29 382.001 128.622 384.819 128.622C388.13 128.622 391.02 129.421 393.489 131.018C395.958 132.616 397.759 134.882 398.892 137.816H394.143C393.301 135.986 392.081 134.577 390.483 133.589C388.914 132.601 387.026 132.108 384.819 132.108C382.698 132.108 380.795 132.601 379.111 133.589C377.426 134.577 376.104 135.986 375.146 137.816C374.187 139.617 373.708 141.737 373.708 144.177C373.708 146.588 374.187 148.708 375.146 150.539C376.104 152.339 377.426 153.734 379.111 154.721C380.795 155.709 382.698 156.203 384.819 156.203C387.026 156.203 388.914 155.724 390.483 154.765C392.081 153.777 393.301 152.369 394.143 150.539H398.892C397.759 153.443 395.958 155.695 393.489 157.292C391.02 158.861 388.13 159.645 384.819 159.645C382.001 159.645 379.43 158.991 377.106 157.684C374.812 156.348 372.996 154.504 371.66 152.151C370.324 149.798 369.656 147.14 369.656 144.177Z" fill="white"/>
<path d="M423.487 129.014V132.238H415.208V159.384H411.243V132.238H402.921V129.014H423.487Z" fill="white"/>
<path d="M437.997 159.689C435.993 159.689 434.192 159.34 432.594 158.643C431.025 157.917 429.791 156.929 428.89 155.68C427.99 154.402 427.525 152.935 427.496 151.279H431.723C431.868 152.703 432.449 153.908 433.466 154.896C434.511 155.854 436.022 156.334 437.997 156.334C439.885 156.334 441.367 155.869 442.441 154.939C443.545 153.981 444.097 152.761 444.097 151.279C444.097 150.117 443.777 149.173 443.138 148.447C442.499 147.721 441.701 147.169 440.742 146.791C439.783 146.414 438.491 146.007 436.864 145.571C434.86 145.048 433.248 144.526 432.028 144.003C430.837 143.48 429.805 142.667 428.934 141.563C428.092 140.43 427.67 138.919 427.67 137.031C427.67 135.376 428.092 133.909 428.934 132.63C429.776 131.352 430.953 130.365 432.463 129.668C434.003 128.97 435.76 128.622 437.736 128.622C440.582 128.622 442.906 129.334 444.707 130.757C446.537 132.18 447.568 134.068 447.801 136.421H443.443C443.298 135.259 442.688 134.243 441.613 133.371C440.539 132.471 439.115 132.02 437.343 132.02C435.688 132.02 434.337 132.456 433.291 133.328C432.245 134.17 431.723 135.361 431.723 136.901C431.723 138.004 432.028 138.905 432.638 139.602C433.277 140.299 434.046 140.837 434.947 141.214C435.876 141.563 437.169 141.969 438.825 142.434C440.829 142.986 442.441 143.538 443.661 144.09C444.881 144.613 445.927 145.441 446.798 146.573C447.67 147.677 448.106 149.188 448.106 151.105C448.106 152.586 447.714 153.981 446.929 155.288C446.145 156.595 444.983 157.655 443.443 158.469C441.904 159.282 440.088 159.689 437.997 159.689Z" fill="white"/>
<path d="M489.434 159.384H485.469L469.522 135.201V159.384H465.557V128.97H469.522L485.469 153.109V128.97H489.434V159.384Z" fill="white"/>
<path d="M506.607 159.776C504.37 159.776 502.337 159.267 500.507 158.251C498.706 157.234 497.283 155.796 496.237 153.937C495.22 152.049 494.712 149.87 494.712 147.401C494.712 144.961 495.235 142.812 496.28 140.953C497.355 139.065 498.808 137.627 500.638 136.639C502.468 135.622 504.516 135.114 506.781 135.114C509.047 135.114 511.095 135.622 512.925 136.639C514.755 137.627 516.193 139.05 517.238 140.909C518.313 142.768 518.851 144.932 518.851 147.401C518.851 149.87 518.299 152.049 517.195 153.937C516.12 155.796 514.653 157.234 512.794 158.251C510.935 159.267 508.873 159.776 506.607 159.776ZM506.607 156.29C508.03 156.29 509.367 155.956 510.616 155.288C511.865 154.62 512.867 153.618 513.622 152.281C514.406 150.945 514.798 149.319 514.798 147.401C514.798 145.484 514.421 143.857 513.666 142.521C512.91 141.185 511.923 140.197 510.703 139.558C509.483 138.89 508.161 138.556 506.738 138.556C505.285 138.556 503.949 138.89 502.729 139.558C501.538 140.197 500.58 141.185 499.853 142.521C499.127 143.857 498.764 145.484 498.764 147.401C498.764 149.348 499.113 150.989 499.81 152.325C500.536 153.661 501.495 154.663 502.685 155.331C503.876 155.97 505.184 156.29 506.607 156.29Z" fill="white"/>
<path d="M528.029 139.384C528.726 138.019 529.714 136.959 530.992 136.203C532.299 135.448 533.882 135.071 535.741 135.071V139.166H534.695C530.251 139.166 528.029 141.577 528.029 146.399V159.384H524.064V135.506H528.029V139.384Z" fill="white"/>
<path d="M538.837 147.358C538.837 144.918 539.331 142.783 540.318 140.953C541.306 139.094 542.657 137.656 544.37 136.639C546.113 135.622 548.06 135.114 550.209 135.114C552.068 135.114 553.796 135.55 555.394 136.421C556.992 137.264 558.212 138.382 559.054 139.776V127.14H563.063V159.384H559.054V154.896C558.27 156.319 557.108 157.495 555.568 158.425C554.029 159.326 552.228 159.776 550.165 159.776C548.045 159.776 546.113 159.253 544.37 158.207C542.657 157.161 541.306 155.695 540.318 153.806C539.331 151.918 538.837 149.769 538.837 147.358ZM559.054 147.401C559.054 145.6 558.691 144.032 557.965 142.696C557.239 141.359 556.251 140.343 555.002 139.646C553.782 138.919 552.431 138.556 550.95 138.556C549.468 138.556 548.118 138.905 546.898 139.602C545.678 140.299 544.704 141.316 543.978 142.652C543.252 143.988 542.889 145.557 542.889 147.358C542.889 149.188 543.252 150.785 543.978 152.151C544.704 153.487 545.678 154.518 546.898 155.244C548.118 155.941 549.468 156.29 550.95 156.29C552.431 156.29 553.782 155.941 555.002 155.244C556.251 154.518 557.239 153.487 557.965 152.151C558.691 150.785 559.054 149.202 559.054 147.401Z" fill="white"/>
<path d="M571.811 131.628C571.056 131.628 570.417 131.367 569.894 130.844C569.371 130.321 569.11 129.682 569.11 128.927C569.11 128.172 569.371 127.533 569.894 127.01C570.417 126.487 571.056 126.225 571.811 126.225C572.537 126.225 573.147 126.487 573.641 127.01C574.164 127.533 574.426 128.172 574.426 128.927C574.426 129.682 574.164 130.321 573.641 130.844C573.147 131.367 572.537 131.628 571.811 131.628ZM573.728 135.506V159.384H569.763V135.506H573.728Z" fill="white"/>
<path d="M579.005 147.401C579.005 144.932 579.498 142.783 580.486 140.953C581.474 139.094 582.839 137.656 584.582 136.639C586.354 135.622 588.373 135.114 590.638 135.114C593.572 135.114 595.983 135.826 597.871 137.249C599.788 138.672 601.052 140.648 601.662 143.175H597.392C596.985 141.722 596.186 140.575 594.995 139.733C593.834 138.89 592.381 138.469 590.638 138.469C588.373 138.469 586.543 139.253 585.148 140.822C583.754 142.362 583.057 144.555 583.057 147.401C583.057 150.277 583.754 152.499 585.148 154.068C586.543 155.636 588.373 156.421 590.638 156.421C592.381 156.421 593.834 156.014 594.995 155.201C596.157 154.387 596.956 153.225 597.392 151.715H601.662C601.023 154.155 599.745 156.116 597.828 157.597C595.91 159.05 593.514 159.776 590.638 159.776C588.373 159.776 586.354 159.267 584.582 158.251C582.839 157.234 581.474 155.796 580.486 153.937C579.498 152.078 579.005 149.899 579.005 147.401Z" fill="white"/>
<path d="M615.405 159.776C613.575 159.776 611.934 159.471 610.482 158.861C609.029 158.222 607.882 157.35 607.04 156.246C606.197 155.114 605.733 153.821 605.645 152.369H609.741C609.857 153.559 610.409 154.533 611.397 155.288C612.414 156.043 613.735 156.421 615.362 156.421C616.872 156.421 618.063 156.087 618.935 155.419C619.806 154.75 620.242 153.908 620.242 152.891C620.242 151.846 619.777 151.076 618.848 150.582C617.918 150.059 616.48 149.551 614.534 149.057C612.762 148.592 611.31 148.128 610.177 147.663C609.073 147.169 608.114 146.457 607.301 145.528C606.517 144.569 606.125 143.32 606.125 141.781C606.125 140.561 606.488 139.442 607.214 138.426C607.94 137.409 608.971 136.61 610.308 136.029C611.644 135.419 613.169 135.114 614.883 135.114C617.526 135.114 619.661 135.782 621.288 137.118C622.914 138.455 623.786 140.285 623.902 142.608H619.937C619.85 141.359 619.341 140.357 618.412 139.602C617.511 138.847 616.291 138.469 614.752 138.469C613.329 138.469 612.196 138.774 611.353 139.384C610.511 139.994 610.09 140.793 610.09 141.781C610.09 142.565 610.337 143.218 610.83 143.741C611.353 144.235 611.992 144.642 612.748 144.961C613.532 145.252 614.607 145.586 615.972 145.963C617.686 146.428 619.08 146.893 620.155 147.358C621.23 147.793 622.145 148.462 622.9 149.362C623.684 150.263 624.091 151.439 624.12 152.891C624.12 154.199 623.757 155.375 623.031 156.421C622.304 157.466 621.273 158.294 619.937 158.904C618.63 159.485 617.119 159.776 615.405 159.776Z" fill="white"/>
<path d="M651.181 135.114C653.243 135.114 655.044 135.564 656.584 136.465C658.152 137.365 659.314 138.498 660.069 139.863V135.506H664.078V159.906C664.078 162.085 663.613 164.017 662.684 165.702C661.754 167.415 660.418 168.752 658.675 169.71C656.961 170.669 654.957 171.148 652.662 171.148C649.525 171.148 646.911 170.407 644.819 168.926C642.728 167.444 641.493 165.426 641.116 162.869H645.037C645.473 164.322 646.373 165.484 647.738 166.355C649.104 167.256 650.745 167.706 652.662 167.706C654.841 167.706 656.613 167.023 657.978 165.658C659.372 164.293 660.069 162.376 660.069 159.906V154.896C659.285 156.29 658.123 157.452 656.584 158.381C655.044 159.311 653.243 159.776 651.181 159.776C649.06 159.776 647.128 159.253 645.386 158.207C643.672 157.161 642.321 155.695 641.333 153.806C640.346 151.918 639.852 149.769 639.852 147.358C639.852 144.918 640.346 142.783 641.333 140.953C642.321 139.094 643.672 137.656 645.386 136.639C647.128 135.622 649.06 135.114 651.181 135.114ZM660.069 147.401C660.069 145.6 659.706 144.032 658.98 142.696C658.254 141.359 657.266 140.343 656.017 139.646C654.797 138.919 653.446 138.556 651.965 138.556C650.484 138.556 649.133 138.905 647.913 139.602C646.693 140.299 645.72 141.316 644.993 142.652C644.267 143.988 643.904 145.557 643.904 147.358C643.904 149.188 644.267 150.785 644.993 152.151C645.72 153.487 646.693 154.518 647.913 155.244C649.133 155.941 650.484 156.29 651.965 156.29C653.446 156.29 654.797 155.941 656.017 155.244C657.266 154.518 658.254 153.487 658.98 152.151C659.706 150.785 660.069 149.202 660.069 147.401Z" fill="white"/>
<path d="M674.744 139.384C675.441 138.019 676.428 136.959 677.706 136.203C679.014 135.448 680.597 135.071 682.456 135.071V139.166H681.41C676.966 139.166 674.744 141.577 674.744 146.399V159.384H670.779V135.506H674.744V139.384Z" fill="white"/>
<path d="M697.446 159.776C695.21 159.776 693.176 159.267 691.346 158.251C689.545 157.234 688.122 155.796 687.076 153.937C686.06 152.049 685.551 149.87 685.551 147.401C685.551 144.961 686.074 142.812 687.12 140.953C688.195 139.065 689.647 137.627 691.477 136.639C693.307 135.622 695.355 135.114 697.621 135.114C699.886 135.114 701.934 135.622 703.764 136.639C705.594 137.627 707.032 139.05 708.078 140.909C709.153 142.768 709.69 144.932 709.69 147.401C709.69 149.87 709.138 152.049 708.034 153.937C706.96 155.796 705.493 157.234 703.634 158.251C701.775 159.267 699.712 159.776 697.446 159.776ZM697.446 156.29C698.87 156.29 700.206 155.956 701.455 155.288C702.704 154.62 703.706 153.618 704.462 152.281C705.246 150.945 705.638 149.319 705.638 147.401C705.638 145.484 705.26 143.857 704.505 142.521C703.75 141.185 702.762 140.197 701.542 139.558C700.322 138.89 699.001 138.556 697.577 138.556C696.125 138.556 694.789 138.89 693.569 139.558C692.378 140.197 691.419 141.185 690.693 142.521C689.967 143.857 689.604 145.484 689.604 147.401C689.604 149.348 689.952 150.989 690.649 152.325C691.375 153.661 692.334 154.663 693.525 155.331C694.716 155.97 696.023 156.29 697.446 156.29Z" fill="white"/>
<path d="M736.079 135.506V159.384H732.114V155.854C731.359 157.074 730.299 158.033 728.934 158.73C727.597 159.398 726.116 159.732 724.489 159.732C722.63 159.732 720.96 159.355 719.479 158.599C717.997 157.815 716.821 156.653 715.949 155.114C715.107 153.574 714.686 151.7 714.686 149.493V135.506H718.607V148.97C718.607 151.323 719.203 153.138 720.393 154.416C721.584 155.665 723.211 156.29 725.274 156.29C727.394 156.29 729.064 155.636 730.284 154.329C731.504 153.022 732.114 151.119 732.114 148.621V135.506H736.079Z" fill="white"/>
<path d="M746.739 139.907C747.523 138.542 748.685 137.409 750.225 136.508C751.793 135.579 753.609 135.114 755.671 135.114C757.792 135.114 759.709 135.622 761.423 136.639C763.166 137.656 764.531 139.094 765.519 140.953C766.506 142.783 767 144.918 767 147.358C767 149.769 766.506 151.918 765.519 153.806C764.531 155.695 763.166 157.161 761.423 158.207C759.709 159.253 757.792 159.776 755.671 159.776C753.638 159.776 751.837 159.326 750.268 158.425C748.729 157.495 747.552 156.348 746.739 154.983V170.712H742.774V135.506H746.739V139.907ZM762.948 147.358C762.948 145.557 762.585 143.988 761.859 142.652C761.132 141.316 760.145 140.299 758.896 139.602C757.676 138.905 756.325 138.556 754.843 138.556C753.391 138.556 752.04 138.919 750.791 139.646C749.571 140.343 748.584 141.374 747.828 142.739C747.102 144.075 746.739 145.629 746.739 147.401C746.739 149.202 747.102 150.785 747.828 152.151C748.584 153.487 749.571 154.518 750.791 155.244C752.04 155.941 753.391 156.29 754.843 156.29C756.325 156.29 757.676 155.941 758.896 155.244C760.145 154.518 761.132 153.487 761.859 152.151C762.585 150.785 762.948 149.188 762.948 147.358Z" fill="white"/>
</svg>
