<svg width="176" height="36" viewBox="0 0 176 36" fill="none" xmlns="http://www.w3.org/2000/svg">
<path d="M25 8C26.1046 8 27 8.89543 27 10V27C27 28.1046 26.1046 29 25 29H8C6.89543 29 6 28.1046 6 27V24.333H23.5C23.4998 22.4002 21.9329 20.833 20 20.833H6V18.5H17.667C17.667 16.5671 16.0998 15.0002 14.167 15H6V10C6 8.89543 6.89543 8 8 8H25Z" fill="#1570EF"/>
<path d="M49.82 14.288C49.436 13.584 48.908 13.048 48.236 12.68C47.564 12.312 46.78 12.128 45.884 12.128C44.892 12.128 44.012 12.352 43.244 12.8C42.476 13.248 41.876 13.888 41.444 14.72C41.012 15.552 40.796 16.512 40.796 17.6C40.796 18.72 41.012 19.696 41.444 20.528C41.892 21.36 42.508 22 43.292 22.448C44.076 22.896 44.988 23.12 46.028 23.12C47.308 23.12 48.356 22.784 49.172 22.112C49.988 21.424 50.524 20.472 50.78 19.256H45.02V16.688H54.092V19.616C53.868 20.784 53.388 21.864 52.652 22.856C51.916 23.848 50.964 24.648 49.796 25.256C48.644 25.848 47.348 26.144 45.908 26.144C44.292 26.144 42.828 25.784 41.516 25.064C40.22 24.328 39.196 23.312 38.444 22.016C37.708 20.72 37.34 19.248 37.34 17.6C37.34 15.952 37.708 14.48 38.444 13.184C39.196 11.872 40.22 10.856 41.516 10.136C42.828 9.4 44.284 9.032 45.884 9.032C47.772 9.032 49.412 9.496 50.804 10.424C52.196 11.336 53.156 12.624 53.684 14.288H49.82ZM55.7139 19.304C55.7139 17.96 55.9779 16.768 56.5059 15.728C57.0499 14.688 57.7779 13.888 58.6899 13.328C59.6179 12.768 60.6499 12.488 61.7859 12.488C62.7779 12.488 63.6419 12.688 64.3779 13.088C65.1299 13.488 65.7299 13.992 66.1779 14.6V12.704H69.5619V26H66.1779V24.056C65.7459 24.68 65.1459 25.2 64.3779 25.616C63.6259 26.016 62.7539 26.216 61.7619 26.216C60.6419 26.216 59.6179 25.928 58.6899 25.352C57.7779 24.776 57.0499 23.968 56.5059 22.928C55.9779 21.872 55.7139 20.664 55.7139 19.304ZM66.1779 19.352C66.1779 18.536 66.0179 17.84 65.6979 17.264C65.3779 16.672 64.9459 16.224 64.4019 15.92C63.8579 15.6 63.2739 15.44 62.6499 15.44C62.0259 15.44 61.4499 15.592 60.9219 15.896C60.3939 16.2 59.9619 16.648 59.6259 17.24C59.3059 17.816 59.1459 18.504 59.1459 19.304C59.1459 20.104 59.3059 20.808 59.6259 21.416C59.9619 22.008 60.3939 22.464 60.9219 22.784C61.4659 23.104 62.0419 23.264 62.6499 23.264C63.2739 23.264 63.8579 23.112 64.4019 22.808C64.9459 22.488 65.3779 22.04 65.6979 21.464C66.0179 20.872 66.1779 20.168 66.1779 19.352ZM76.2035 14.624C76.6355 14.016 77.2275 13.512 77.9795 13.112C78.7475 12.696 79.6195 12.488 80.5955 12.488C81.7315 12.488 82.7555 12.768 83.6675 13.328C84.5955 13.888 85.3235 14.688 85.8515 15.728C86.3955 16.752 86.6675 17.944 86.6675 19.304C86.6675 20.664 86.3955 21.872 85.8515 22.928C85.3235 23.968 84.5955 24.776 83.6675 25.352C82.7555 25.928 81.7315 26.216 80.5955 26.216C79.6195 26.216 78.7555 26.016 78.0035 25.616C77.2675 25.216 76.6675 24.712 76.2035 24.104V32.336H72.8435V12.704H76.2035V14.624ZM83.2355 19.304C83.2355 18.504 83.0675 17.816 82.7315 17.24C82.4115 16.648 81.9795 16.2 81.4355 15.896C80.9075 15.592 80.3315 15.44 79.7075 15.44C79.0995 15.44 78.5235 15.6 77.9795 15.92C77.4515 16.224 77.0195 16.672 76.6835 17.264C76.3635 17.856 76.2035 18.552 76.2035 19.352C76.2035 20.152 76.3635 20.848 76.6835 21.44C77.0195 22.032 77.4515 22.488 77.9795 22.808C78.5235 23.112 79.0995 23.264 79.7075 23.264C80.3315 23.264 80.9075 23.104 81.4355 22.784C81.9795 22.464 82.4115 22.008 82.7315 21.416C83.0675 20.824 83.2355 20.12 83.2355 19.304ZM90.8131 11.12C90.2211 11.12 89.7251 10.936 89.3251 10.568C88.9411 10.184 88.7491 9.712 88.7491 9.152C88.7491 8.592 88.9411 8.128 89.3251 7.76C89.7251 7.376 90.2211 7.184 90.8131 7.184C91.4051 7.184 91.8931 7.376 92.2771 7.76C92.6771 8.128 92.8771 8.592 92.8771 9.152C92.8771 9.712 92.6771 10.184 92.2771 10.568C91.8931 10.936 91.4051 11.12 90.8131 11.12ZM92.4691 12.704V26H89.1091V12.704H92.4691ZM99.7008 15.464V21.896C99.7008 22.344 99.8048 22.672 100.013 22.88C100.237 23.072 100.605 23.168 101.117 23.168H102.677V26H100.565C97.7328 26 96.3168 24.624 96.3168 21.872V15.464H94.7328V12.704H96.3168V9.416H99.7008V12.704H102.677V15.464H99.7008Z" fill="#F2F4F7"/>
<path d="M119.236 22.28H111.94L110.596 26H108.292L114.34 9.368H116.86L122.884 26H120.58L119.236 22.28ZM118.612 20.504L115.588 12.056L112.564 20.504H118.612ZM127.704 8.24V26H125.52V8.24H127.704ZM143.426 18.92C143.426 19.336 143.402 19.776 143.354 20.24H132.842C132.922 21.536 133.362 22.552 134.162 23.288C134.978 24.008 135.962 24.368 137.114 24.368C138.058 24.368 138.842 24.152 139.466 23.72C140.106 23.272 140.554 22.68 140.81 21.944H143.162C142.81 23.208 142.106 24.24 141.05 25.04C139.994 25.824 138.682 26.216 137.114 26.216C135.866 26.216 134.746 25.936 133.754 25.376C132.778 24.816 132.01 24.024 131.45 23C130.89 21.96 130.61 20.76 130.61 19.4C130.61 18.04 130.882 16.848 131.426 15.824C131.97 14.8 132.73 14.016 133.706 13.472C134.698 12.912 135.834 12.632 137.114 12.632C138.362 12.632 139.466 12.904 140.426 13.448C141.386 13.992 142.122 14.744 142.634 15.704C143.162 16.648 143.426 17.72 143.426 18.92ZM141.17 18.464C141.17 17.632 140.986 16.92 140.618 16.328C140.25 15.72 139.746 15.264 139.106 14.96C138.482 14.64 137.786 14.48 137.018 14.48C135.914 14.48 134.97 14.832 134.186 15.536C133.418 16.24 132.978 17.216 132.866 18.464H141.17ZM148.493 14.984C148.877 14.232 149.421 13.648 150.125 13.232C150.845 12.816 151.717 12.608 152.741 12.608V14.864H152.165C149.717 14.864 148.493 16.192 148.493 18.848V26H146.309V12.848H148.493V14.984ZM157.926 14.648V22.4C157.926 23.04 158.062 23.496 158.334 23.768C158.606 24.024 159.078 24.152 159.75 24.152H161.358V26H159.39C158.174 26 157.262 25.72 156.654 25.16C156.046 24.6 155.742 23.68 155.742 22.4V14.648H154.038V12.848H155.742V9.536H157.926V12.848H161.358V14.648H157.926ZM168.66 26.216C167.652 26.216 166.748 26.048 165.948 25.712C165.148 25.36 164.516 24.88 164.052 24.272C163.588 23.648 163.332 22.936 163.284 22.136H165.54C165.604 22.792 165.908 23.328 166.452 23.744C167.012 24.16 167.74 24.368 168.636 24.368C169.468 24.368 170.124 24.184 170.604 23.816C171.084 23.448 171.324 22.984 171.324 22.424C171.324 21.848 171.068 21.424 170.556 21.152C170.044 20.864 169.252 20.584 168.18 20.312C167.204 20.056 166.404 19.8 165.78 19.544C165.172 19.272 164.644 18.88 164.196 18.368C163.764 17.84 163.548 17.152 163.548 16.304C163.548 15.632 163.748 15.016 164.148 14.456C164.548 13.896 165.116 13.456 165.852 13.136C166.588 12.8 167.428 12.632 168.372 12.632C169.828 12.632 171.004 13 171.9 13.736C172.796 14.472 173.276 15.48 173.34 16.76H171.156C171.108 16.072 170.828 15.52 170.316 15.104C169.82 14.688 169.148 14.48 168.3 14.48C167.516 14.48 166.892 14.648 166.428 14.984C165.964 15.32 165.732 15.76 165.732 16.304C165.732 16.736 165.868 17.096 166.14 17.384C166.428 17.656 166.78 17.88 167.196 18.056C167.628 18.216 168.22 18.4 168.972 18.608C169.916 18.864 170.684 19.12 171.276 19.376C171.868 19.616 172.372 19.984 172.788 20.48C173.22 20.976 173.444 21.624 173.46 22.424C173.46 23.144 173.26 23.792 172.86 24.368C172.46 24.944 171.892 25.4 171.156 25.736C170.436 26.056 169.604 26.216 168.66 26.216Z" fill="#F2F4F7"/>
</svg>
